<?xml version="1.0" encoding="utf-8"?>
<!-- Generator: Adobe Illustrator 16.0.3, SVG Export Plug-In . SVG Version: 6.00 Build 0)  -->
<!DOCTYPE svg PUBLIC "-//W3C//DTD SVG 1.1//EN" "http://www.w3.org/Graphics/SVG/1.1/DTD/svg11.dtd">
<svg version="1.1" id="Layer_1" xmlns="http://www.w3.org/2000/svg" xmlns:xlink="http://www.w3.org/1999/xlink" x="0px" y="0px"
	 width="32px" height="32px" viewBox="0 0 32 32" enable-background="new 0 0 32 32" xml:space="preserve">
<g>
	<path fill="#E9E9E9" d="M20.916,16c0,2.728-2.211,4.938-4.938,4.938S11.039,18.728,11.039,16c0-0.394,0.051-0.773,0.138-1.14H10.28
		v6.837h11.396V14.86h-0.896C20.865,15.227,20.916,15.606,20.916,16z"/>
	<path fill="#E9E9E9" d="M15.978,18.659c1.465,0,2.659-1.193,2.659-2.659s-1.193-2.659-2.659-2.659
		c-1.466,0-2.659,1.193-2.659,2.659S14.511,18.659,15.978,18.659z M18.637,10.302h3.039v3.039h-3.039V10.302z"/>
	<path fill="#E9E9E9" d="M16,0C7.164,0,0,7.164,0,16c0,8.837,7.164,16,16,16c8.837,0,16-7.163,16-16C32,7.164,24.837,0,16,0z
		 M23.955,21.697c-0.004,1.258-1.021,2.276-2.279,2.279H10.279C9.021,23.974,8.003,22.955,8,21.697V10.302
		c0.004-1.257,1.022-2.275,2.279-2.279h11.396c1.257,0.004,2.275,1.022,2.279,2.279L23.955,21.697L23.955,21.697z"/>
</g>
</svg>
