<?xml version="1.0" encoding="utf-8"?>
<!-- Generator: Adobe Illustrator 16.0.3, SVG Export Plug-In . SVG Version: 6.00 Build 0)  -->
<!DOCTYPE svg PUBLIC "-//W3C//DTD SVG 1.1//EN" "http://www.w3.org/Graphics/SVG/1.1/DTD/svg11.dtd">
<svg version="1.1" id="Layer_1" xmlns="http://www.w3.org/2000/svg" xmlns:xlink="http://www.w3.org/1999/xlink" x="0px" y="0px"
	 width="32px" height="32px" viewBox="0 0 32 32" enable-background="new 0 0 32 32" xml:space="preserve">
<path fill="#E9E9E9" d="M16,0C7.164,0,0,7.164,0,16c0,8.837,7.164,16,16,16c8.837,0,16-7.163,16-16C32,7.164,24.837,0,16,0z
	 M23.943,12.809c-0.25,6.516-3.463,10.832-10.991,10.703h-0.486c-0.447,0-4.543-0.443-5.344-1.824
	c2.479,0.19,4.247-0.405,5.12-1.135c-1.048-0.289-2.923-0.462-3.251-2.849c0.384,0.104,0.618,0.221,1.299,0.112
	c-1.307-0.823-2.758-1.519-2.679-3.643c0.311,0.317,1.164,0.518,1.46,0.457c-0.768-0.233-2.149-3.244-0.974-4.781
	c1.984,1.79,4.075,3.482,7.804,3.643c0.227-2.214,1.24-3.699,3.167-4.325c1.841-0.479,3.256,0.26,3.902,1.138
	c0.736-0.224,1.452-0.466,2.192-0.685c-0.004,0.833-0.569,1.463-0.935,1.709c0.746,0.165,1.422-0.475,1.422-0.475
	C25.467,11.818,24.557,12.58,23.943,12.809z"/>
</svg>
