<?xml version="1.0" encoding="utf-8"?>
<!-- Generator: Adobe Illustrator 16.0.3, SVG Export Plug-In . SVG Version: 6.00 Build 0)  -->
<!DOCTYPE svg PUBLIC "-//W3C//DTD SVG 1.1//EN" "http://www.w3.org/Graphics/SVG/1.1/DTD/svg11.dtd">
<svg version="1.1" id="Layer_1" xmlns="http://www.w3.org/2000/svg" xmlns:xlink="http://www.w3.org/1999/xlink" x="0px" y="0px"
	 width="32px" height="32px" viewBox="0 0 32 32" enable-background="new 0 0 32 32" xml:space="preserve">
<g>
	<path fill="#E9E9E9" d="M16.637,14.495c0.402-0.019,0.719-0.082,0.951-0.188c0.326-0.145,0.54-0.33,0.641-0.559
		c0.102-0.229,0.15-0.496,0.15-0.797c0-0.232-0.059-0.465-0.174-0.697c-0.116-0.232-0.322-0.405-0.617-0.517
		c-0.264-0.1-0.592-0.155-0.984-0.165c-0.55-0.01-1.101-0.015-1.651-0.014h-0.339v2.965h0.565
		C15.749,14.523,16.235,14.514,16.637,14.495z M18.118,17.084c-0.282-0.081-0.673-0.125-1.166-0.132
		c-0.517-0.007-1.034-0.009-1.55-0.009h-0.79v3.492h0.264c1.014,0,1.74-0.002,2.181-0.008c0.416-0.003,0.827-0.086,1.211-0.246
		c0.377-0.156,0.633-0.363,0.774-0.625c0.142-0.261,0.214-0.562,0.214-0.9c0-0.445-0.088-0.787-0.261-1.029
		C18.825,17.387,18.531,17.204,18.118,17.084z"/>
	<path fill="#E9E9E9" d="M16,0C7.164,0,0,7.164,0,16c0,8.837,7.164,16,16,16c8.837,0,16-7.163,16-16C32,7.164,24.837,0,16,0z
		 M22.602,20.531c-0.265,0.524-0.649,0.979-1.123,1.326c-0.553,0.416-1.162,0.711-1.824,0.887c-0.661,0.176-1.5,0.264-2.518,0.264
		h-6.122V8.987h5.443c1.13,0,1.957,0.038,2.479,0.113c0.545,0.082,1.071,0.25,1.562,0.5c0.533,0.27,0.929,0.632,1.188,1.087
		c0.261,0.455,0.393,0.975,0.393,1.558c0,0.678-0.18,1.278-0.536,1.795c-0.358,0.518-0.862,0.92-1.517,1.208v0.075
		c0.916,0.182,1.642,0.559,2.179,1.13c0.537,0.57,0.808,1.324,0.808,2.261C23.014,19.393,22.875,19.997,22.602,20.531z"/>
</g>
</svg>
